<?xml version="1.0" encoding="UTF-8" standalone="no"?>
<!-- Created with Inkscape (http://www.inkscape.org/) -->

<svg
   width="180mm"
   height="100mm"
   viewBox="0 0 180 100"
   version="1.1"
   id="svg1"
   inkscape:version="1.4.2 (ebf0e940d0, 2025-05-08)"
   sodipodi:docname="acrossback.svg"
   xmlns:inkscape="http://www.inkscape.org/namespaces/inkscape"
   xmlns:sodipodi="http://sodipodi.sourceforge.net/DTD/sodipodi-0.dtd"
   xmlns="http://www.w3.org/2000/svg"
   xmlns:svg="http://www.w3.org/2000/svg">
  <sodipodi:namedview
     id="namedview1"
     pagecolor="#ffffff"
     bordercolor="#000000"
     borderopacity="0.25"
     inkscape:showpageshadow="2"
     inkscape:pageopacity="0.0"
     inkscape:pagecheckerboard="0"
     inkscape:deskcolor="#d1d1d1"
     inkscape:document-units="mm"
     inkscape:zoom="1.5771769"
     inkscape:cx="294.51357"
     inkscape:cy="135.05143"
     inkscape:window-width="1920"
     inkscape:window-height="1131"
     inkscape:window-x="0"
     inkscape:window-y="0"
     inkscape:window-maximized="1"
     inkscape:current-layer="layer1" />
  <defs
     id="defs1">
    <marker
       style="overflow:visible"
       id="DartArrow"
       refX="5"
       refY="0"
       orient="auto-start-reverse"
       inkscape:stockid="Dart arrow"
       markerWidth="1"
       markerHeight="1"
       viewBox="0 0 1 1"
       inkscape:isstock="true"
       inkscape:collect="always"
       preserveAspectRatio="xMidYMid">
      <path
         style="fill:context-stroke;fill-rule:evenodd;stroke:none"
         d="M 0,0 5,-5 -12.5,0 5,5 Z"
         transform="scale(-0.5)"
         id="path6-8" />
    </marker>
    <marker
       style="overflow:visible"
       id="marker2"
       refX="5"
       refY="0"
       orient="auto-start-reverse"
       inkscape:stockid="Dart arrow"
       markerWidth="1"
       markerHeight="1"
       viewBox="0 0 1 1"
       inkscape:isstock="true"
       inkscape:collect="always"
       preserveAspectRatio="xMidYMid">
      <path
         style="fill:context-stroke;fill-rule:evenodd;stroke:none"
         d="M 0,0 5,-5 -12.5,0 5,5 Z"
         transform="scale(-0.5)"
         id="path2" />
    </marker>
  </defs>
  <g
     inkscape:label="Ebene 1"
     inkscape:groupmode="layer"
     id="layer1">
    <path
       id="path20"
       style="fill:#ffffff;stroke:#000000;stroke-width:0.331088;stroke-dasharray:none;stroke-dashoffset:0;paint-order:markers fill stroke"
       d="m 125.46451,1.2319274 c -0.42715,-0.0198 -0.75416,0.0228 -0.95963,0.1571 -1.61125,0.2823501 -18.29087,3.2566101 -21.5925,5.9448501 C 99.442333,10.159237 90.690906,40.719958 90.690906,40.719958 l 15.433684,4.91443 3.85403,-9.93428 c 2.4744,36.46548 -1.94645,42.35393 -3.34656,61.63913 0,0 8.96682,1.21182 28.21172,1.21182 19.24491,0 28.21225,-1.21182 28.21225,-1.21182 -1.40015,-19.2852 -5.8215,-25.17365 -3.34708,-61.63913 l 3.85455,9.93428 15.43317,-4.91443 c 0,0 -8.75088,-30.560721 -12.22097,-33.3860805 -3.30162,-2.68824 -19.98121,-5.66249 -21.59249,-5.9448501 -1.09585,-0.71614996 -5.65861,1.1823501 -10.33943,1.1823501 -3.80316,0 -7.52831,-1.2535501 -9.37927,-1.3394501 z" />
    <path
       id="path74"
       style="fill:#ffffff;stroke:#000000;stroke-width:0.331;stroke-dasharray:none;stroke-dashoffset:0;paint-order:markers fill stroke"
       d="m 35.506157,1.2319274 c -0.42715,-0.0198 -0.75416,0.0228 -0.95963,0.1571 C 32.935277,1.6713775 16.255673,4.6456375 12.954045,7.3338775 9.4839943,10.159237 0.73256833,40.719958 0.73256833,40.719958 l 15.43368367,4.91443 3.854025,-9.93428 c 2.4744,36.46548 -1.94645,42.35393 -3.346562,61.63913 0,0 8.966822,1.21182 28.211712,1.21182 19.24489,0 28.21223,-1.21182 28.21223,-1.21182 -1.40015,-19.2852 -5.8215,-25.17365 -3.34708,-61.63913 l 3.85455,9.93428 15.43316,-4.91443 c 0,0 -8.75087,-30.560721 -12.22096,-33.3860805 -3.30162,-2.68824 -19.9812,-5.66249 -21.59248,-5.9448501 -1.09585,-0.71614996 -5.65861,1.1823501 -10.33942,1.1823501 -3.80316,0 -7.52831,-1.2535501 -9.37927,-1.3394501 z" />
    <path
       style="opacity:0.5;fill:none;stroke:#000000;stroke-width:0.3;stroke-dasharray:none;stroke-dashoffset:0;paint-order:stroke fill markers"
       d="M 20.020537,35.700258 C 19.837817,17.825708 12.953929,7.3341175 12.953929,7.3341175"
       id="path83" />
    <path
       style="opacity:0.5;fill:none;stroke:#000000;stroke-width:0.3;stroke-dasharray:none;stroke-dashoffset:0;paint-order:stroke fill markers"
       d="m 76.817247,7.3341175 c 0,0 -6.88395,10.4915905 -7.06658,28.3661405"
       id="path84" />
    <path
       style="display:inline;fill:none;stroke:#000000;stroke-width:0.1;stroke-dasharray:0.589607, 0.393072;stroke-dashoffset:0;paint-order:stroke fill markers"
       d="m 1.4876873,37.793668 15.6596787,5.31219"
       id="path86" />
    <path
       style="display:inline;fill:none;stroke:#000000;stroke-width:0.1;stroke-dasharray:0.589607, 0.393072;stroke-dashoffset:0;paint-order:stroke fill markers"
       d="m 72.829857,94.156128 c 0,0 -15.44234,1.30319 -27.94427,1.30319 -12.50192,0 -27.944247,-1.30319 -27.944247,-1.30319"
       id="path87" />
    <path
       style="display:inline;fill:none;stroke:#000000;stroke-width:0.1;stroke-dasharray:0.589607, 0.393072;stroke-dashoffset:0;paint-order:stroke fill markers"
       d="m 72.623837,43.105858 15.65968,-5.31219"
       id="path88" />
    <path
       style="font-variation-settings:normal;display:inline;opacity:0.5;vector-effect:none;fill:none;fill-opacity:1;stroke:#000000;stroke-width:0.3;stroke-linecap:butt;stroke-linejoin:miter;stroke-miterlimit:4;stroke-dasharray:none;stroke-dashoffset:0;stroke-opacity:1;-inkscape-stroke:none;paint-order:stroke fill markers;stop-color:#000000"
       d="m 44.885597,4.2970975 c 5.42332,0 9.08616,-1.35274 10.75379,-2.8452601"
       id="path90"
       sodipodi:nodetypes="cc" />
    <path
       style="font-variation-settings:normal;display:inline;opacity:0.5;vector-effect:none;fill:none;fill-opacity:1;stroke:#000000;stroke-width:0.3;stroke-linecap:butt;stroke-linejoin:miter;stroke-miterlimit:4;stroke-dasharray:none;stroke-dashoffset:0;stroke-opacity:1;-inkscape-stroke:none;paint-order:stroke fill markers;stop-color:#000000"
       d="m 44.885597,4.2970975 v -1.72528"
       id="path91" />
    <path
       style="font-variation-settings:normal;display:inline;opacity:0.5;vector-effect:none;fill:none;fill-opacity:1;stroke:#000000;stroke-width:0.3;stroke-linecap:butt;stroke-linejoin:miter;stroke-miterlimit:4;stroke-dasharray:none;stroke-dashoffset:0;stroke-opacity:1;-inkscape-stroke:none;paint-order:stroke fill markers;stop-color:#000000"
       d="m 34.131797,1.4518374 c 1.66763,1.4925201 5.33046,2.8452601 10.7538,2.8452601"
       id="path94"
       sodipodi:nodetypes="cc" />
    <path
       style="opacity:0.5;fill:none;stroke:#000000;stroke-width:0.3;stroke-dasharray:none;stroke-dashoffset:0;paint-order:stroke fill markers"
       d="M 109.97888,35.700258 C 117.51301,20.376943 102.91227,7.3341175 102.91227,7.3341175"
       id="path12"
       sodipodi:nodetypes="cc" />
    <path
       style="display:inline;fill:none;stroke:#000000;stroke-width:0.1;stroke-dasharray:0.589607, 0.393072;stroke-dashoffset:0;paint-order:stroke fill markers"
       d="m 91.446026,37.793668 15.659684,5.31219"
       id="path14" />
    <path
       style="display:inline;fill:none;stroke:#000000;stroke-width:0.1;stroke-dasharray:0.589607, 0.393072;stroke-dashoffset:0;paint-order:stroke fill markers"
       d="m 162.78823,94.156128 c 0,0 -15.44235,1.30319 -27.94429,1.30319 -12.50192,0 -27.94426,-1.30319 -27.94426,-1.30319"
       id="path15" />
    <path
       style="display:inline;fill:none;stroke:#000000;stroke-width:0.1;stroke-dasharray:0.589607, 0.393072;stroke-dashoffset:0;paint-order:stroke fill markers"
       d="m 162.58221,43.105858 15.65969,-5.31219"
       id="path16" />
    <path
       style="font-variation-settings:normal;display:inline;opacity:0.5;vector-effect:none;fill:none;fill-opacity:1;stroke:#000000;stroke-width:0.3;stroke-linecap:butt;stroke-linejoin:miter;stroke-miterlimit:4;stroke-dasharray:none;stroke-dashoffset:0;stroke-opacity:1;-inkscape-stroke:none;paint-order:stroke fill markers;stop-color:#000000"
       d="m 134.84395,4.2970975 c 5.42333,0 9.08617,-1.35274 10.7538,-2.8452601"
       id="path17"
       sodipodi:nodetypes="cc" />
    <path
       style="font-variation-settings:normal;display:inline;opacity:0.5;vector-effect:none;fill:none;fill-opacity:1;stroke:#000000;stroke-width:0.3;stroke-linecap:butt;stroke-linejoin:miter;stroke-miterlimit:4;stroke-dasharray:none;stroke-dashoffset:0;stroke-opacity:1;-inkscape-stroke:none;paint-order:stroke fill markers;stop-color:#000000"
       d="m 134.84395,4.2970975 v -1.72528"
       id="path18" />
    <path
       style="font-variation-settings:normal;display:inline;opacity:0.5;vector-effect:none;fill:none;fill-opacity:1;stroke:#000000;stroke-width:0.3;stroke-linecap:butt;stroke-linejoin:miter;stroke-miterlimit:4;stroke-dasharray:none;stroke-dashoffset:0;stroke-opacity:1;-inkscape-stroke:none;paint-order:stroke fill markers;stop-color:#000000"
       d="m 124.09015,1.4518374 c 1.66763,1.4925201 5.33046,2.8452601 10.7538,2.8452601"
       id="path19"
       sodipodi:nodetypes="cc" />
    <path
       style="opacity:0.5;fill:none;stroke:#000000;stroke-width:0.3;stroke-dasharray:none;stroke-dashoffset:0;paint-order:stroke fill markers"
       d="M 159.70895,35.700108 C 152.17482,20.376793 166.77556,7.3339675 166.77556,7.3339675"
       id="path21"
       sodipodi:nodetypes="cc" />
    <path
       style="fill:#000000;stroke:#ff0000;stroke-width:1;stroke-dasharray:1, 1;stroke-dashoffset:0;marker-start:url(#DartArrow);marker-end:url(#marker2)"
       d="M 21.277147,25.139446 H 68.722824"
       id="path1-7"
       sodipodi:nodetypes="cc" />
    <path
       style="fill:#000000;stroke:#ff0000;stroke-width:1;stroke-dasharray:1, 1;stroke-dashoffset:0;marker-start:url(#DartArrow);marker-end:url(#marker2)"
       d="m 113.6518,25.139446 h 42.61312"
       id="path11"
       sodipodi:nodetypes="cc" />
  </g>
</svg>
